# xmcd CD database file
#
# Track frame offsets:
#	150
#	20942
#	36486
#	42706
#	52637
#	69625
#	86615
#	106415
#	110110
#	138362
#	145919
#	154662
#	163550
#	171780
#	188059
#	198436
#	210290
#	212372
#	221337
#	237519
#	247185
#	254249
#	260028
#	277196
#	286576
#	298805
#
# Disc length: 4065 seconds
#
# Revision: 0
# Processed by: cddbd v1.5.2PL0 Copyright (c) Steve Scherf et al.
# Submitted via: CDex 1.51
#
DISCID=9e0fdf1a
DTITLE=Riccardo Pittau Congregation - V IV MMV DEATH JAZZ
DYEAR=2008
DGENRE=Jazz
TTITLE0=Agonias
TTITLE1=Nieuport II
TTITLE2=Attittidu
TTITLE3=Bosambo
TTITLE4=prima di venire all'inferno!!!
TTITLE5=Attenzione alle eliche
TTITLE6=B Folk
TTITLE7=Fox Trottu
TTITLE8=Joie De Vivre
TTITLE9=Merry E Pipino
TTITLE10=Nibembo
TTITLE11=Autumn in Siberia
TTITLE12=Bad Trip
TTITLE13=Arcano XIII
TTITLE14=the man in Lollove
TTITLE15=Vlad's Mood
TTITLE16=Circonciso
TTITLE17=Erigendo forche
TTITLE18=Paul Pumpkin
TTITLE19=Morte a Sanremo
TTITLE20=Oggetto Gianni
TTITLE21=Sinonimi di Sinonimi
TTITLE22=Zio Tom
TTITLE23=M'Djaye
TTITLE24=Deep Hate
TTITLE25=Be Folk
EXTD=YEAR: 2008
EXTT0=
EXTT1=
EXTT2=
EXTT3=
EXTT4=
EXTT5=
EXTT6=
EXTT7=
EXTT8=
EXTT9=
EXTT10=
EXTT11=
EXTT12=
EXTT13=
EXTT14=
EXTT15=
EXTT16=
EXTT17=
EXTT18=
EXTT19=
EXTT20=
EXTT21=
EXTT22=
EXTT23=
EXTT24=
EXTT25=
PLAYORDER=
